#!OML:ASF X:\für Bonn\!DataBase\2005_08_11_Bastian_Final\c3d\Bastian.ASF
:FULLY-SPECIFIED
:DEGREES
1568
root -3.55634 16.6111 -4.71137 167.34 41.9017 -175.398
lowerback 10.1666 -10.3947 9.51869
upperback 5.43113 -11.5844 8.34878
thorax 0.0123047 -5.16162 4.80545
lowerneck -3.73508 7.66303 8.01994
upperneck 8.15201 10.1513 -4.63813
head 3.68799 5.09294 -2.20202
rclavicle -2.38542e-014 3.18055e-014
rhumerus -203.975 -179.466 114.43
rradius 130.4
rwrist -175.127
rhand -7.95408 2.67802
rfingers 7.12502
rthumb 17.953 -26.5134
lclavicle -2.38542e-014 3.18055e-014
lhumerus -15.2536 -29.026 102.052
lradius 90.6266
lwrist 218.803
lhand -25.8151 23.5087
lfingers 7.12502
lthumb 0.72433 53.4872
rfemur -0.914279 3.15011 18.4106
rtibia 47.1015
rfoot -28.9356 -5.24837
rtoes -20.1047
lfemur -15.1731 20.1445 -8.37596
ltibia 66.5956
lfoot -12.3936 -11.0547
ltoes -18.094
1569
root -3.55514 16.6022 -4.79836 167.054 42.5035 -175.72
lowerback 10.1073 -10.5124 9.57866
upperback 5.50364 -11.7309 8.45798
thorax 0.137718 -5.22329 4.89193
lowerneck -3.5352 7.79351 7.90851
upperneck 8.2998 10.3729 -4.79723
head 3.71649 5.1981 -2.22403
rclavicle 3.1408e-014 -2.22639e-014
rhumerus -203.289 -179.395 114.56
rradius 130.058
rwrist -175.881
rhand -6.97932 3.15223
rfingers 7.12502
rthumb 18.8907 -25.9505
lclavicle 3.1408e-014 -2.22639e-014
lhumerus -14.4791 -29.4006 102.117
lradius 90.4991
lwrist 218.353
lhand -25.6232 23.5297
lfingers 7.12502
lthumb 0.909644 53.5075
rfemur -0.688725 3.28905 17.879
rtibia 47.0571
rfoot -28.9787 -4.72217
rtoes -20.1594
lfemur -15.504 20.4575 -8.22371
ltibia 65.0985
lfoot -12.4827 -10.6041
ltoes -20.0883
1570
root -3.55322 16.5968 -4.88761 166.751 43.1224 -176.056
lowerback 10.0677 -10.6298 9.62921
upperback 5.56621 -11.8768 8.55322
thorax 0.241211 -5.28644 4.97259
lowerneck -3.34136 7.9354 7.83087
upperneck 8.47918 10.6096 -4.96398
head 3.7589 5.3116 -2.25165
rclavicle -4.92986e-014 -1.30403e-013
rhumerus -202.624 -179.414 114.687
rradius 129.657
rwrist -176.665
rhand -5.93096 3.6574
rfingers 7.12502
rthumb 19.8987 -25.3439
lclavicle -4.92986e-014 -1.30403e-013
lhumerus -13.7195 -29.7648 102.145
lradius 90.3146
lwrist 217.931
lhand -25.461 23.5989
lfingers 7.12502
lthumb 1.06632 53.576
rfemur -0.45387 3.50808 17.3659
rtibia 47.002
rfoot -29.0364 -4.24067
rtoes -20.1872
lfemur -15.7737 20.7098 -8.03479
ltibia 63.5638
lfoot -12.5357 -10.1183
ltoes -22.1776
1571
root -3.551 16.5891 -4.98 166.442 43.7596 -176.414
lowerback 9.9816 -10.7481 9.67868
upperback 5.66108 -12.0358 8.64012
thorax 0.403335 -5.35426 5.03493
lowerneck -3.18105 8.08682 7.72606
upperneck 8.61965 10.8569 -5.13409
head 3.79462 5.42846 -2.27485
rclavicle -3.73715e-014 -2.54444e-014
rhumerus -201.932 -179.511 114.807
rradius 129.205
rwrist -177.449
rhand -4.79705 4.12664
rfingers 7.12502
rthumb 20.9884 -24.7577
lclavicle -3.73715e-014 -2.54444e-014
lhumerus -12.8449 -30.1215 102.069
lradius 90.1501
lwrist 217.512
lhand -25.3629 23.5684
lfingers 7.12502
lthumb 1.16109 53.545
rfemur -0.225103 3.72009 16.8155
rtibia 46.9298
rfoot -29.0857 -3.70746
rtoes -20.197
lfemur -15.9655 20.881 -7.82188
ltibia 61.9802
lfoot -12.4974 -9.63825
ltoes -23.3274
1572
root -3.54884 16.581 -5.07518 166.117 44.4161 -176.782
lowerback 9.87934 -10.8619 9.76837
upperback 5.75888 -12.1927 8.68981
thorax 0.561094 -5.4206 5.03456
lowerneck -2.94512 8.23403 7.67295
upperneck 8.72049 11.0989 -5.29969
head 3.80841 5.54564 -2.30899
rclavicle 1.14898e-013 2.54444e-014
rhumerus -201.274 -179.573 115.065
rradius 128.686
rwrist -178.482
rhand -3.65125 4.5714
rfingers 7.12502
rthumb 22.0888 -24.1869
lclavicle 1.14898e-013 2.54444e-014
lhumerus -11.9571 -30.5015 101.904
lradius 89.9874
lwrist 217.108
lhand -25.342 23.5179
lfingers 7.12502
lthumb 1.18127 53.4944
rfemur 0.000465194 3.96921 16.2644
rtibia 46.8528
rfoot -29.1435 -3.22018
rtoes -20.2956
lfemur -16.0637 20.9579 -7.57021
ltibia 60.3236
lfoot -12.4804 -9.11981
ltoes -23.9318
1573
root -3.54589 16.5712 -5.17217 165.809 45.0729 -177.154
lowerback 9.75726 -10.9678 9.84971
upperback 5.85133 -12.3444 8.74574
thorax 0.726835 -5.48486 5.04061
lowerneck -2.68953 8.36467 7.62196
upperneck 8.81211 11.3214 -5.48129
head 3.81619 5.65328 -2.35072
rclavicle 1.25632e-013 -8.26944e-014
rhumerus -200.643 -179.639 115.5
rradius 128.147
rwrist -179.813
rhand -2.36868 4.97521
rfingers 7.12502
rthumb 23.3197 -23.6324
lclavicle 1.25632e-013 -8.26944e-014
lhumerus -11.0328 -30.8774 101.689
lradius 89.8704
lwrist 216.741
lhand -25.3954 23.3905
lfingers 7.12502
lthumb 1.12966 53.3673
rfemur 0.199779 4.23028 15.7137
rtibia 46.7749
rfoot -29.2077 -2.71992
rtoes -20.328
lfemur -16.0931 20.8791 -7.26516
ltibia 58.58
lfoot -12.4517 -8.67741
ltoes -23.4689
1574
root -3.54291 16.5611 -5.27183 165.492 45.7428 -177.505
lowerback 9.64739 -11.0821 9.91315
upperback 5.96064 -12.5054 8.81953
thorax 0.912538 -5.55247 5.07559
lowerneck -2.41558 8.50605 7.61462
upperneck 8.87916 11.5618 -5.72126
head 3.82093 5.76946 -2.41674
rclavicle -7.15625e-015 -3.81667e-014
rhumerus -200.019 -179.816 115.907
rradius 127.483
rwrist -181.248
rhand -0.94114 5.24463
rfingers 7.12502
rthumb 24.6886 -23.1826
lclavicle -7.15625e-015 -3.81667e-014
lhumerus -10.0821 -31.2215 101.461
lradius 89.8061
lwrist 216.283
lhand -25.4258 23.2385
lfingers 7.12502
lthumb 1.10034 53.2154
rfemur 0.422386 4.55335 15.1961
rtibia 46.6827
rfoot -29.2644 -2.23194
rtoes -20.2188
lfemur -16.0083 20.6867 -6.87606
ltibia 56.7538
lfoot -12.4771 -8.25215
ltoes -22.7026
1575
root -3.54002 16.5517 -5.37332 165.183 46.4358 -177.875
lowerback 9.55575 -11.1926 9.93554
upperback 6.05104 -12.6612 8.90926
thorax 1.08078 -5.62067 5.15136
lowerneck -2.11966 8.64874 7.67369
upperneck 8.96666 11.8111 -6.03157
head 3.83756 5.89051 -2.51379
rclavicle 2.22639e-014 -3.49861e-014
rhumerus -199.429 -180.101 116.306
rradius 126.735
rwrist -182.644
rhand 0.510022 5.41753
rfingers 7.12502
rthumb 26.0788 -22.8121
lclavicle 2.22639e-014 -3.49861e-014
lhumerus -9.12942 -31.5103 101.229
lradius 89.7932
lwrist 215.77
lhand -25.4555 23.1223
lfingers 7.12502
lthumb 1.07168 53.0993
rfemur 0.615121 4.92608 14.6849
rtibia 46.5768
rfoot -29.295 -1.81367
rtoes -20.2947
lfemur -15.8601 20.3544 -6.46017
ltibia 54.85
lfoot -12.451 -7.73341
ltoes -21.5014
1576
root -3.53721 16.5425 -5.47693 164.891 47.1334 -178.214
lowerback 9.48224 -11.3037 9.99706
upperback 6.13 -12.8125 8.97728
thorax 1.21405 -5.68646 5.189
lowerneck -1.78235 8.79182 7.85236
upperneck 9.03869 12.0626 -6.38983
head 3.85395 6.01583 -2.64525
rclavicle 4.29375e-014 2.25819e-013
rhumerus -198.9 -180.428 116.675
rradius 125.942
rwrist -184.009
rhand 1.89992 5.56251
rfingers 7.12502
rthumb 27.4089 -22.4639
lclavicle 4.29375e-014 2.25819e-013
lhumerus -8.20141 -31.8395 100.936
lradius 89.8184
lwrist 215.233
lhand -25.4057 22.9991
lfingers 7.12502
lthumb 1.11978 52.9759
rfemur 0.827424 5.38815 14.2372
rtibia 46.45
rfoot -29.3282 -1.50434
rtoes -20.3646
lfemur -15.616 19.8196 -5.97654
ltibia 52.8935
lfoot -12.4032 -7.28042
ltoes -19.9558
1577
root -3.53404 16.5335 -5.58249 164.6 47.8339 -178.561
lowerback 9.44562 -11.4234 10.0226
upperback 6.18659 -12.9691 9.06262
thorax 1.31587 -5.75805 5.27181
lowerneck -1.47062 8.94963 8.01229
upperneck 9.15896 12.3354 -6.72525
head 3.88955 6.15203 -2.76353
rclavicle 1.21656e-013 -6.04305e-014
rhumerus -198.358 -180.908 117.079
rradius 125.103
rwrist -185.082
rhand 3.05534 5.65247
rfingers 7.12502
rthumb 28.5134 -22.1939
lclavicle 1.21656e-013 -6.04305e-014
lhumerus -7.27709 -32.1424 100.605
lradius 89.8719
lwrist 214.641
lhand -25.3203 22.9982
lfingers 7.12502
lthumb 1.20219 52.9746
rfemur 1.02554 5.93556 13.8115
rtibia 46.3202
rfoot -29.3611 -1.19971
rtoes -20.2012
lfemur -15.3073 19.1638 -5.45613
ltibia 50.9117
lfoot -12.3667 -6.74293
ltoes -19.0114
